<?xml version="1.0" standalone="no"?>
<!DOCTYPE svg PUBLIC "-//W3C//DTD SVG 20010904//EN"
 "http://www.w3.org/TR/2001/REC-SVG-20010904/DTD/svg10.dtd">
<svg version="1.0" xmlns="http://www.w3.org/2000/svg"
 width="2556.000000pt" height="2556.000000pt" viewBox="0 0 2556.000000 2556.000000"
 preserveAspectRatio="xMidYMid meet">
<metadata>
Created by potrace 1.14, written by Peter Selinger 2001-2017
</metadata>
<g transform="translate(0.000000,2556.000000) scale(0.100000,-0.100000)"
fill="#000000" stroke="none">
<path d="M11965 24511 c-86 -53 -189 -190 -345 -461 -92 -159 -286 -555 -380
-775 -40 -93 -79 -185 -87 -203 -80 -185 -149 -407 -184 -591 -17 -86 -32
-166 -34 -178 -3 -13 -7 -33 -9 -45 -3 -13 -10 -48 -16 -78 -6 -30 -13 -64
-15 -75 -2 -11 -17 -92 -35 -180 -17 -88 -33 -176 -36 -195 -2 -19 -6 -46 -9
-60 -3 -14 -8 -38 -11 -55 -2 -16 -9 -55 -14 -85 -5 -30 -12 -77 -15 -105 -4
-27 -8 -61 -10 -75 -34 -211 -47 -529 -32 -740 14 -194 62 -387 128 -511 31
-57 194 -280 261 -356 74 -83 257 -263 328 -319 270 -218 525 -329 753 -326
290 3 435 206 358 503 -12 48 -64 168 -139 320 -252 513 -376 790 -487 1084
-76 204 -145 435 -160 541 -3 21 -8 45 -11 53 -9 29 -18 151 -18 256 0 141 12
252 40 360 2 6 5 19 7 30 7 27 55 208 72 270 8 28 23 82 34 120 11 39 22 81
25 95 3 14 12 54 21 90 9 36 19 76 21 90 3 14 9 41 14 60 35 137 89 526 105
770 3 47 8 114 11 150 10 144 12 478 3 531 -12 62 -47 109 -82 109 -12 0 -35
-8 -52 -19z"/>
<path d="M17270 24166 c-404 -153 -675 -439 -846 -893 -28 -75 -98 -314 -115
-398 -7 -33 -13 -62 -14 -65 -8 -35 -16 -71 -20 -100 -4 -19 -10 -53 -15 -75
-5 -22 -25 -125 -45 -230 -19 -104 -40 -208 -45 -230 -8 -34 -13 -60 -26 -120
-9 -44 -71 -243 -96 -304 -46 -118 -81 -175 -413 -676 -351 -528 -411 -624
-506 -811 -186 -367 -191 -600 -15 -793 109 -118 366 -273 511 -307 60 -14
229 -13 284 2 312 83 575 445 780 1074 35 110 97 323 106 369 2 9 15 62 29
118 39 154 105 487 145 733 11 69 23 145 26 170 3 25 8 52 10 60 2 8 6 35 9
60 3 25 8 62 11 83 6 41 9 64 24 182 12 86 17 128 26 215 3 30 7 71 9 90 3 19
7 64 11 100 3 36 8 81 11 100 2 19 6 60 9 90 2 30 7 75 9 100 10 91 28 300 41
480 3 41 8 100 10 130 3 30 7 91 10 135 4 44 8 91 10 105 2 14 7 45 10 70 11
77 14 94 44 211 26 104 67 220 108 307 9 19 12 37 7 42 -5 5 -46 -6 -94 -24z"/>
<path d="M5114 23084 c-4 -15 6 -78 25 -157 30 -127 54 -240 66 -309 15 -84
77 -391 120 -588 58 -268 202 -635 320 -814 25 -38 45 -71 45 -73 0 -5 97
-126 134 -168 77 -86 282 -382 482 -693 254 -397 544 -832 669 -1006 55 -76
107 -148 115 -160 36 -52 161 -210 246 -311 238 -284 439 -449 589 -481 65
-14 200 -35 267 -40 103 -9 315 -9 387 0 255 32 418 138 449 291 41 198 -91
471 -409 841 -99 116 -409 429 -548 554 -46 41 -95 86 -110 100 -16 14 -56 50
-91 80 -35 30 -68 60 -74 65 -6 6 -41 34 -76 64 -66 55 -286 273 -351 346 -64
73 -164 194 -370 446 -280 342 -354 425 -614 684 -201 201 -217 216 -390 365
-138 119 -120 100 -198 205 -37 50 -70 95 -74 100 -5 6 -62 84 -128 175 -107
147 -260 346 -290 376 -6 7 -22 25 -36 40 -77 90 -142 119 -155 68z"/>
<path d="M22933 20756 c-82 -43 -382 -219 -488 -286 -13 -8 -52 -33 -87 -54
-257 -161 -619 -406 -793 -539 -169 -128 -234 -191 -346 -332 -64 -81 -73 -91
-169 -200 -79 -90 -295 -304 -375 -370 -38 -32 -72 -61 -75 -64 -14 -17 -178
-137 -270 -198 -378 -251 -764 -403 -1280 -503 -30 -5 -66 -12 -80 -15 -14 -3
-38 -7 -55 -9 -59 -8 -281 -47 -325 -57 -25 -5 -61 -11 -80 -14 -59 -6 -231
-53 -300 -82 -178 -73 -278 -183 -326 -358 -20 -72 -28 -325 -13 -400 5 -27
12 -63 15 -80 8 -46 54 -156 84 -200 68 -99 181 -176 311 -211 84 -23 315 -27
424 -9 119 21 174 32 245 50 7 2 14 4 194 64 282 93 635 257 971 451 88 50
176 101 195 112 19 11 54 33 78 49 24 16 45 29 47 29 6 0 361 236 455 303 206
146 483 359 634 487 66 55 193 167 231 201 22 20 56 51 75 69 200 183 427 431
517 565 61 90 115 201 239 495 9 19 19 44 24 55 5 11 26 61 46 110 20 50 42
104 49 120 7 17 20 50 30 75 10 25 26 64 36 87 11 24 19 46 19 49 0 3 7 22 16
42 29 66 33 76 85 207 60 150 120 283 146 323 19 29 24 83 8 88 -5 2 -56 -21
-112 -50z"/>
<path d="M12907 18933 c-1 0 -99 -4 -217 -7 -118 -4 -249 -9 -290 -11 -134 -8
-218 -15 -252 -19 -18 -3 -55 -8 -83 -11 -47 -5 -211 -30 -265 -40 -14 -3 -38
-7 -55 -10 -16 -3 -67 -15 -112 -25 -46 -11 -93 -22 -105 -24 -59 -12 -196
-52 -331 -96 -539 -178 -1043 -458 -1529 -850 -61 -50 -115 -90 -120 -90 -5 0
-11 6 -14 14 -3 8 -16 22 -28 30 -22 14 -26 12 -67 -24 -24 -22 -49 -40 -55
-40 -18 0 -168 -77 -194 -99 -72 -62 -100 -97 -133 -163 -36 -73 -41 -88 -53
-183 -4 -27 -8 -54 -8 -60 -3 -20 -70 -104 -151 -189 -93 -98 -457 -595 -505
-691 -3 -5 -21 -36 -40 -68 -19 -33 -42 -71 -51 -86 -43 -72 -152 -277 -197
-371 -63 -133 -172 -388 -172 -404 0 -7 -4 -16 -9 -21 -11 -12 -120 -335 -160
-475 -51 -180 -131 -542 -145 -655 -4 -27 -9 -63 -12 -78 -7 -33 -11 -60 -19
-137 -4 -30 -8 -66 -10 -80 -2 -14 -7 -59 -10 -100 -3 -41 -8 -88 -10 -105
-23 -188 -23 -728 0 -1015 17 -205 45 -436 76 -628 11 -67 18 -126 15 -130 -2
-4 -7 -38 -10 -77 -3 -38 -8 -81 -10 -95 -3 -14 -7 -52 -11 -85 -3 -33 -8 -73
-10 -90 -3 -16 -7 -51 -10 -77 -2 -26 -9 -76 -14 -110 -6 -35 -13 -83 -16
-108 -3 -25 -10 -70 -15 -100 -5 -30 -11 -80 -15 -110 -3 -30 -7 -68 -10 -85
-3 -16 -7 -46 -10 -65 -2 -19 -7 -45 -9 -56 -15 -74 -14 -97 9 -175 31 -104
31 -109 1 -168 -22 -42 -44 -139 -61 -266 -23 -174 -55 -432 -60 -490 -3 -38
-8 -77 -10 -85 -12 -48 -20 -186 -17 -330 1 -122 -2 -184 -14 -239 -19 -87
-13 -174 15 -211 18 -24 22 -25 147 -27 192 -2 197 3 208 207 10 171 23 303
33 345 3 11 6 92 7 180 1 98 7 177 15 205 7 25 14 52 16 60 6 34 19 146 17
153 -1 4 2 26 7 50 6 23 13 57 16 76 3 19 7 37 9 40 2 3 7 24 10 46 9 57 28
115 37 115 11 0 141 -200 244 -375 48 -82 98 -166 110 -185 264 -411 274 -424
406 -562 31 -33 77 -97 103 -143 47 -85 126 -174 179 -202 82 -42 206 -55 278
-29 l37 13 93 -92 c52 -51 121 -116 154 -145 33 -29 76 -67 95 -84 67 -61 286
-228 410 -313 277 -190 662 -398 950 -513 30 -12 69 -28 85 -35 108 -46 516
-179 614 -200 9 -2 52 -13 96 -24 44 -11 91 -22 105 -25 14 -2 55 -11 92 -20
69 -16 330 -61 408 -71 67 -8 122 -15 150 -20 14 -2 63 -7 110 -11 47 -4 99
-8 115 -10 217 -22 853 -22 1040 0 17 2 66 7 110 11 44 3 91 8 105 10 14 2 54
7 90 10 36 4 72 8 80 10 8 1 40 6 70 10 47 5 140 20 255 40 242 42 537 112
800 190 1136 336 1790 752 2505 1594 25 29 48 58 52 64 9 14 8 15 47 -60 83
-156 200 -216 421 -214 86 0 165 14 210 36 14 7 46 15 71 18 124 16 260 98
457 275 84 75 84 74 34 183 -16 35 -38 83 -47 107 -10 24 -22 45 -26 48 -5 2
-54 -20 -111 -50 -199 -105 -330 -132 -478 -100 -66 14 -93 25 -132 56 -50 40
-65 65 -78 131 -7 36 -3 45 62 145 39 59 80 116 92 128 52 51 195 211 257 289
147 183 183 248 244 443 52 165 55 191 36 269 -12 50 -12 54 43 220 63 191 95
308 130 473 24 110 30 140 41 213 3 17 7 43 10 57 2 14 7 52 11 85 3 33 8 68
10 78 25 137 25 738 0 875 -2 9 -7 44 -11 77 -52 451 -246 1013 -493 1430
-138 232 -347 525 -479 670 -10 11 -38 43 -62 70 -168 191 -441 446 -681 638
-499 399 -1171 659 -1915 742 -27 3 -72 8 -100 11 -47 6 -104 11 -151 13 -19
1 -21 5 -14 34 4 17 26 70 48 117 23 47 46 105 51 130 25 113 31 147 35 180 3
20 16 80 30 135 13 55 27 130 30 167 3 36 8 72 11 80 9 27 16 96 20 205 3 97
1 119 -18 166 -39 96 -80 129 -178 145 -133 20 -205 -4 -293 -99 -48 -52 -166
-208 -177 -235 -2 -5 -34 -60 -71 -122 -38 -62 -68 -117 -68 -122 0 -6 -4 -10
-10 -10 -5 0 -10 -4 -10 -9 0 -5 -28 -57 -62 -117 -62 -108 -137 -274 -177
-394 -12 -36 -44 -111 -72 -167 -47 -98 -51 -103 -82 -104 -18 0 -41 -2 -52
-4 -11 -2 -45 -7 -75 -10 -30 -3 -80 -10 -110 -15 -30 -5 -72 -11 -92 -14 -91
-14 -121 -19 -258 -47 -689 -142 -1138 -337 -1585 -688 -38 -31 -75 -60 -82
-66 -261 -228 -440 -423 -620 -675 -71 -101 -164 -248 -218 -345 -60 -110
-165 -322 -165 -335 0 -17 -203 -112 -252 -117 -140 -16 -303 183 -528 642
-152 312 -250 523 -250 540 0 4 -21 50 -47 103 l-46 95 24 46 c15 28 96 118
209 231 174 173 312 317 370 386 87 103 195 230 200 234 3 3 22 26 43 52 21
26 43 53 50 60 7 7 41 49 77 93 35 44 68 85 72 90 77 92 222 303 305 445 25
41 75 105 113 141 51 50 73 80 89 124 32 84 48 197 46 310 -2 89 -5 107 -32
160 -16 33 -36 61 -44 63 -8 1 -33 -9 -54 -24 -32 -22 -46 -25 -89 -21 -60 5
-79 -1 -168 -54 -37 -22 -94 -47 -128 -55 -86 -20 -182 -68 -210 -106 -15 -21
-25 -50 -28 -83 -3 -45 0 -56 37 -110 52 -77 57 -99 31 -174 -66 -198 -285
-502 -844 -1171 -71 -85 -136 -162 -145 -171 -9 -9 -36 -40 -61 -70 -118 -141
-355 -359 -390 -359 -13 0 -34 71 -31 105 3 42 30 162 47 210 8 23 14 51 14
64 0 13 7 49 15 80 8 31 17 72 20 91 32 185 159 676 182 703 149 176 446 462
643 623 495 402 1017 692 1565 868 212 68 308 95 435 121 14 2 57 11 95 19 39
8 95 17 125 21 30 4 57 8 60 10 3 1 32 6 65 9 33 4 71 9 85 11 14 2 45 7 70
10 25 4 59 8 75 11 17 2 44 6 60 8 30 4 135 22 190 31 264 48 505 121 505 154
0 8 -60 18 -165 28 -47 4 -425 10 -428 6z m2048 -1913 c4 -6 1 -34 -4 -63 -17
-78 -20 -97 -26 -142 -3 -22 -10 -61 -16 -87 l-11 -46 -114 0 c-112 0 -114 1
-108 21 15 48 242 327 265 327 4 0 11 -5 14 -10z m-6110 -1037 c-7 -54 -15
-107 -20 -133 -16 -83 -15 -109 8 -188 26 -87 25 -129 -6 -175 -15 -23 -23
-52 -33 -122 -3 -22 -7 -47 -9 -55 -5 -19 -12 -61 -20 -125 -8 -69 -25 -205
-30 -235 -2 -14 -6 -47 -9 -75 -3 -27 -10 -88 -16 -135 -5 -47 -12 -112 -15
-145 -3 -33 -8 -74 -10 -91 -7 -47 -7 -141 0 -234 4 -60 1 -110 -11 -169 -19
-94 -14 -187 12 -226 15 -23 19 -24 145 -24 141 0 170 7 189 48 12 27 14 43
25 216 6 100 13 178 21 225 2 14 7 54 11 90 6 59 6 98 4 259 -1 29 6 73 14 97
14 43 18 63 30 174 7 66 51 292 66 338 6 17 14 32 17 32 4 -1 24 -25 45 -56
39 -56 257 -412 257 -420 0 -7 256 -406 297 -464 26 -36 79 -96 153 -175 36
-38 85 -104 107 -145 94 -174 224 -259 385 -252 49 2 122 26 213 72 41 21 75
36 75 33 0 -3 -9 -39 -19 -81 -26 -103 -68 -323 -76 -397 -4 -33 -8 -62 -10
-65 -10 -16 -19 -213 -19 -415 -1 -201 6 -351 19 -435 2 -14 7 -45 10 -70 5
-42 18 -122 30 -180 3 -14 8 -38 11 -55 2 -16 19 -82 35 -145 168 -632 519
-1155 1024 -1522 155 -113 397 -251 554 -316 l53 -22 -27 -32 c-14 -18 -44
-58 -65 -89 -33 -47 -62 -71 -184 -149 -80 -52 -146 -96 -146 -100 0 -23 -83
-124 -123 -150 -26 -16 -50 -30 -53 -30 -6 0 -48 -39 -178 -163 -126 -121
-211 -168 -255 -140 -32 20 2 170 89 403 34 90 68 194 76 230 13 62 12 203 -1
281 -27 158 -51 223 -113 314 -38 56 -139 155 -157 155 -7 0 -23 13 -36 28
-13 16 -56 55 -95 88 -121 100 -212 107 -369 29 -98 -50 -220 -141 -255 -192
-22 -32 -22 -34 -7 -110 18 -88 19 -84 -61 -208 -85 -134 -268 -332 -438 -478
-53 -44 -154 -173 -154 -195 0 -4 -14 -15 -32 -25 l-31 -18 -31 33 c-32 35
-172 192 -216 244 -202 235 -503 693 -690 1047 l-73 139 54 55 c168 174 222
233 349 383 30 36 57 67 60 70 3 3 25 30 50 60 25 30 49 60 55 66 18 20 49 58
90 109 22 27 46 57 54 65 8 8 55 69 104 135 48 66 94 127 100 135 24 30 86
127 133 210 30 51 75 110 115 150 105 103 135 183 146 382 7 146 -8 212 -65
280 -13 16 -17 15 -55 -10 -34 -23 -51 -27 -111 -27 -67 0 -75 -3 -141 -46
-45 -29 -95 -51 -139 -62 -225 -55 -301 -170 -202 -305 20 -28 39 -63 42 -80
17 -86 -106 -309 -345 -627 -160 -214 -455 -566 -462 -553 -43 79 -199 605
-225 758 -2 14 -9 45 -14 70 -14 68 -30 163 -40 243 -5 40 -13 101 -19 137 -5
36 -13 101 -16 145 -4 44 -9 96 -11 115 -30 329 -18 1085 22 1283 2 12 6 42 9
67 2 24 12 83 21 130 9 47 18 96 20 110 3 14 11 54 20 90 80 342 152 566 276
860 75 178 233 500 245 500 3 0 2 -21 -2 -47z m6430 -667 c78 -7 256 -30 325
-42 57 -9 241 -54 252 -60 13 -8 -19 -42 -59 -60 -35 -17 -69 -53 -138 -149
-36 -50 -64 -73 -170 -140 -146 -92 -142 -89 -199 -176 l-43 -65 21 -45 c12
-24 30 -64 40 -89 11 -25 28 -65 38 -88 29 -66 26 -94 -14 -143 -93 -116 -118
-185 -113 -313 6 -152 78 -237 214 -253 25 -3 48 -7 49 -8 10 -9 120 34 212
82 194 104 265 156 444 332 200 197 174 173 267 242 42 32 103 82 136 113 33
31 63 56 66 56 5 0 30 -58 33 -76 1 -6 5 -37 8 -70 23 -199 94 -322 221 -380
62 -29 98 -35 201 -36 96 0 168 19 246 66 l57 34 72 -111 c173 -267 303 -565
369 -843 35 -148 46 -208 56 -304 3 -30 9 -82 13 -115 12 -110 4 -416 -14
-535 -2 -14 -6 -47 -10 -75 -3 -27 -10 -68 -15 -90 -5 -22 -11 -58 -15 -80
-31 -204 -155 -565 -300 -870 -75 -159 -303 -557 -334 -585 -3 -3 -10 -13 -16
-22 -27 -47 -219 -310 -287 -393 -46 -56 -133 -161 -138 -165 -3 -3 -32 -36
-64 -73 -65 -75 -76 -75 -76 3 0 59 16 82 146 216 244 251 409 461 462 589 26
62 89 268 97 316 9 47 -26 193 -65 273 -19 41 -41 69 -66 86 -35 23 -45 25
-158 24 -136 -1 -154 -6 -263 -78 -58 -38 -109 -89 -186 -186 -36 -45 -106
-128 -135 -159 -93 -100 -276 -500 -297 -651 -3 -19 -7 -55 -10 -80 -2 -25 -7
-58 -10 -75 -3 -16 -7 -45 -10 -62 -3 -18 -10 -33 -15 -33 -20 0 -172 -156
-205 -210 -27 -45 -64 -81 -153 -152 -64 -51 -121 -98 -127 -104 -24 -28 -160
-125 -183 -131 -19 -5 -30 0 -45 18 -17 22 -19 35 -14 129 3 58 8 115 11 126
2 12 7 37 10 55 3 19 8 48 11 64 3 17 10 59 16 95 31 184 161 699 287 1135 22
77 43 156 46 176 l6 36 106 21 c59 12 112 26 119 32 31 25 54 185 52 353 l-2
107 -39 36 c-36 33 -38 38 -33 79 4 24 22 92 41 152 45 138 51 180 36 242 -12
52 -62 109 -98 113 -63 5 -81 3 -112 -12 -38 -20 -73 -55 -110 -111 l-24 -37
-27 132 c-103 502 -333 999 -663 1435 -40 53 -89 114 -109 136 -20 22 -37 45
-37 51 0 6 16 18 35 27 55 26 112 70 249 195 71 64 147 133 169 153 l39 35
-53 125 c-29 68 -57 129 -63 136 -8 9 -32 -6 -96 -58 -106 -86 -108 -88 -259
-139 -174 -59 -273 -56 -404 13 -137 71 -217 230 -231 452 l-5 87 69 103 c39
58 70 106 70 109 0 2 16 32 36 65 29 49 41 61 63 62 14 0 35 2 46 4 11 2 70 7
130 11 61 3 111 7 112 8 6 5 437 -2 508 -8z m-1424 -221 l-1 -110 -68 -60
c-124 -111 -219 -210 -241 -252 -12 -24 -34 -50 -49 -60 -30 -18 -90 -79 -130
-131 -40 -52 -87 -71 -150 -61 -63 10 -104 39 -132 96 -33 65 -39 134 -31 345
1 21 12 33 54 59 117 72 266 142 412 194 88 31 315 94 329 91 5 -1 8 -51 7
-111z m2621 -161 c55 -37 66 -49 59 -62 -14 -27 -52 -58 -99 -81 -23 -12 -72
-50 -110 -84 -37 -35 -85 -79 -106 -98 -22 -19 -75 -66 -118 -106 -122 -113
-212 -169 -255 -158 l-24 6 22 37 c68 111 158 217 336 398 109 111 204 199
212 197 8 -2 45 -24 83 -49z m-2607 -382 c21 -15 43 -59 50 -102 10 -65 40
-179 59 -224 19 -47 20 -56 3 -56 -20 0 -166 -78 -212 -113 -94 -72 -194 -193
-237 -287 -20 -42 -40 -91 -44 -105 -1 -5 -10 -39 -19 -74 -18 -69 -23 -212
-11 -300 22 -152 100 -309 218 -437 56 -60 177 -223 178 -238 0 -5 6 -17 14
-25 8 -9 45 -77 83 -151 72 -140 136 -301 172 -430 20 -74 23 -91 36 -180 8
-49 8 -173 1 -205 -2 -11 -5 -28 -5 -37 -1 -25 -95 -64 -181 -76 -72 -9 -491
-9 -507 1 -4 3 -45 8 -90 11 -318 25 -594 128 -808 300 -159 129 -293 313
-374 518 -115 292 -146 673 -81 1023 5 28 11 61 14 75 27 162 118 424 212 613
76 153 207 361 228 362 5 0 11 -20 13 -45 6 -73 41 -200 67 -245 71 -121 182
-177 349 -177 138 0 234 40 372 155 75 62 268 243 389 364 50 50 93 92 96 92
3 0 10 -3 15 -7z m-5924 -3656 c15 -16 10 -35 -11 -46 -18 -10 -22 -7 -35 24
-16 37 -19 93 -8 121 4 13 12 3 26 -36 11 -30 23 -58 28 -63z m8933 -208 c9
-12 16 -33 16 -45 0 -24 -28 -115 -39 -123 -3 -3 -35 -39 -71 -80 -36 -41 -72
-80 -81 -87 -9 -7 -31 -35 -49 -63 -29 -46 -36 -51 -64 -48 -30 3 -31 5 -29
45 1 22 12 65 24 95 29 70 118 206 171 264 62 67 97 79 122 42z m-5978 -412
c72 -43 108 -146 108 -306 0 -146 -6 -200 -39 -365 -19 -94 -96 -317 -136
-397 -67 -134 -81 -179 -77 -248 l3 -58 -65 35 c-36 20 -77 44 -92 54 -14 11
-29 19 -32 19 -5 0 -267 173 -296 196 -44 35 -275 222 -296 239 -40 35 -30 54
71 134 33 26 99 86 146 132 47 46 117 113 155 149 38 36 99 101 134 145 83
102 161 179 252 247 79 60 98 63 164 24z m4130 -171 c-33 -80 -51 -144 -62
-220 -3 -22 -10 -67 -16 -100 -5 -33 -12 -71 -14 -85 -13 -89 -24 -140 -37
-175 -9 -22 -18 -58 -21 -80 -3 -22 -10 -69 -15 -105 -15 -104 -12 -409 4
-462 26 -87 64 -138 114 -153 12 -4 19 -11 15 -15 -15 -15 -453 -141 -543
-157 -14 -2 -51 -10 -81 -18 -60 -15 -350 -71 -415 -80 -22 -3 -62 -10 -90
-15 -27 -5 -75 -12 -105 -15 -30 -3 -62 -8 -70 -10 -8 -2 -46 -7 -85 -10 -38
-3 -83 -8 -100 -10 -16 -2 -73 -6 -125 -10 -52 -4 -115 -8 -140 -10 -58 -5
-500 -5 -562 -1 -147 11 -268 22 -338 31 -103 13 -128 16 -185 27 -33 6 -69
12 -80 14 -11 1 -31 5 -45 8 -14 3 -41 9 -60 12 -255 43 -712 191 -980 318
l-55 26 38 0 c53 0 154 46 277 125 58 37 141 90 185 118 206 130 424 288 485
351 31 33 33 39 23 66 -14 38 -8 39 10 3 17 -37 8 -85 -23 -120 -45 -50 -91
-131 -104 -181 -17 -64 -12 -196 9 -250 22 -55 92 -116 150 -131 93 -23 156
-11 280 54 217 115 289 168 480 356 94 92 208 195 253 230 46 34 110 86 143
117 57 52 60 54 74 36 14 -20 25 -62 31 -129 19 -189 97 -326 219 -380 115
-52 306 -46 420 12 92 47 373 298 456 408 46 60 277 293 354 357 47 39 192
182 220 218 11 14 37 48 58 77 42 57 56 66 74 49 10 -9 6 -28 -21 -91z m-1958
-89 c39 -7 72 -12 72 -9 0 2 5 1 10 -2 18 -11 -59 -91 -118 -123 -32 -17 -67
-41 -78 -53 -10 -12 -59 -58 -109 -102 -49 -44 -115 -103 -145 -132 -100 -93
-211 -165 -256 -165 -63 0 101 220 329 442 145 140 176 166 197 162 14 -2 58
-10 98 -18z m1361 -3 c-13 -15 -37 -41 -54 -58 -75 -76 -148 -160 -173 -198
-15 -23 -33 -46 -41 -51 -24 -15 -107 -100 -130 -133 -43 -63 -128 -81 -207
-42 -81 38 -111 124 -110 304 l1 120 30 1 c138 5 325 15 345 18 14 3 48 8 75
11 81 11 86 12 170 30 44 9 82 19 84 21 2 2 11 4 19 4 12 0 9 -7 -9 -27z
m-2540 -393 c34 -82 35 -88 12 -52 -19 29 -61 127 -61 142 0 12 29 -40 49 -90z
m2319 55 c-3 -3 -9 2 -12 12 -6 14 -5 15 5 6 7 -7 10 -15 7 -18z m1936 -156
c16 -7 36 -35 56 -78 17 -36 35 -73 40 -82 7 -13 -9 -30 -78 -81 -194 -143
-429 -276 -704 -396 -70 -31 -71 -32 74 130 111 123 201 209 303 288 105 82
157 128 190 170 23 30 64 60 82 60 7 0 23 -5 37 -11z"/>
<path d="M144 17206 c-12 -30 26 -73 228 -261 47 -44 98 -91 114 -105 16 -14
67 -59 114 -100 188 -167 652 -496 1140 -809 63 -41 138 -88 165 -106 173
-112 721 -440 920 -552 539 -302 879 -456 1060 -478 22 -3 81 -12 130 -21 50
-8 104 -17 120 -20 17 -2 82 -14 145 -25 63 -12 124 -22 135 -24 26 -4 144
-24 170 -29 33 -6 336 -55 385 -61 25 -3 52 -8 60 -10 8 -2 40 -7 70 -10 30
-3 66 -8 80 -10 14 -2 50 -7 80 -10 30 -3 71 -7 90 -10 165 -21 308 -29 525
-30 192 0 303 5 395 19 14 3 45 7 70 11 163 26 345 106 443 195 66 61 127 158
143 230 4 19 9 42 11 50 8 35 10 171 2 216 -4 27 -11 67 -14 89 -26 152 -130
423 -212 552 -151 237 -338 366 -612 422 -150 30 -459 24 -651 -14 -14 -3 -42
-8 -64 -11 -62 -9 -118 -20 -406 -80 -231 -49 -398 -80 -470 -89 -25 -3 -56
-7 -70 -10 -132 -26 -449 -23 -575 5 -22 5 -78 16 -125 25 -47 9 -93 18 -102
20 -92 19 -303 77 -433 120 -283 93 -418 152 -851 371 -333 168 -495 243 -650
299 -144 53 -351 109 -474 130 -19 3 -60 10 -90 15 -30 5 -75 12 -100 15 -25
3 -61 7 -80 10 -64 8 -203 16 -365 20 -131 4 -176 9 -250 30 -172 48 -193 51
-201 31z"/>
<path d="M24937 15225 c-1 -2 -38 -5 -82 -8 -79 -6 -116 -12 -165 -23 -14 -3
-36 -8 -50 -10 -53 -10 -214 -56 -312 -90 -293 -102 -617 -261 -1183 -579
-342 -192 -855 -417 -1075 -470 -131 -31 -167 -36 -272 -36 -100 0 -163 15
-308 72 -141 55 -200 74 -300 94 -132 27 -372 27 -580 0 -25 -3 -63 -8 -85
-11 -194 -25 -343 -115 -419 -255 -54 -99 -67 -151 -72 -282 -12 -337 160
-653 401 -735 137 -46 273 -66 465 -66 171 0 282 10 450 40 47 9 96 18 110 20
14 3 97 23 185 46 298 75 680 214 1042 379 147 66 566 276 658 329 22 13 58
33 80 45 132 73 179 100 360 208 212 127 250 151 495 311 265 172 706 485 845
598 79 65 238 200 258 220 37 37 60 76 52 89 -20 32 -217 95 -326 105 -76 7
-168 11 -172 9z"/>
<path d="M5090 12173 c-14 -2 -68 -16 -120 -30 -52 -14 -102 -26 -110 -28 -8
-2 -73 -17 -145 -35 -109 -26 -356 -80 -430 -94 -11 -2 -69 -14 -130 -26 -60
-12 -121 -24 -135 -26 -14 -2 -47 -9 -75 -14 -86 -16 -104 -20 -132 -25 -16
-3 -37 -7 -49 -10 -12 -3 -39 -7 -60 -11 -21 -3 -66 -12 -99 -19 -33 -8 -73
-16 -90 -20 -16 -3 -41 -7 -55 -10 -14 -2 -77 -16 -140 -31 -63 -14 -124 -28
-135 -30 -35 -7 -279 -75 -340 -95 -113 -37 -456 -173 -590 -234 -16 -7 -77
-33 -135 -56 -58 -23 -119 -48 -135 -55 -17 -7 -93 -38 -168 -68 -204 -83
-675 -286 -812 -350 -276 -131 -575 -282 -580 -293 -2 -7 -2 -19 1 -27 6 -15
66 -44 104 -51 14 -2 52 -8 85 -14 60 -11 135 -17 300 -27 102 -6 893 -5 1060
1 61 2 191 6 290 10 99 4 225 8 280 10 55 2 156 6 225 10 69 3 166 8 215 10
50 3 131 7 180 10 50 3 133 7 185 10 185 11 376 23 470 30 36 3 103 7 150 10
47 3 110 8 140 10 30 2 91 7 135 10 90 7 167 13 240 20 28 2 82 7 120 10 81 6
161 13 225 20 25 3 70 7 100 10 30 3 69 8 85 10 17 2 55 6 85 10 174 20 322
55 535 127 511 170 777 393 759 635 -13 182 -189 375 -480 526 -104 54 -325
136 -408 153 -178 35 -333 49 -416 37z"/>
<path d="M19304 10684 c-153 -34 -253 -124 -303 -270 -29 -88 -36 -144 -35
-284 3 -250 72 -505 212 -780 220 -433 560 -779 957 -975 156 -77 358 -144
515 -171 25 -4 47 -8 50 -9 16 -3 101 -16 140 -20 25 -3 61 -7 80 -10 175 -24
798 -24 940 -1 14 3 60 7 103 11 43 4 88 8 100 10 12 2 49 6 82 10 70 7 97 11
225 31 91 14 114 18 180 29 62 11 287 57 345 71 33 8 68 17 77 19 302 70 626
189 774 285 141 92 149 181 21 241 -136 63 -377 94 -807 104 -246 5 -449 14
-500 20 -19 2 -64 7 -100 10 -313 30 -644 106 -875 202 -307 128 -531 288
-836 599 -75 77 -188 191 -250 254 -63 64 -152 150 -199 191 -99 87 -273 219
-289 219 -6 0 -11 5 -11 10 0 6 -4 10 -10 10 -5 0 -26 12 -47 26 -52 36 -205
109 -279 133 -77 25 -218 44 -260 35z"/>
<path d="M7390 8640 c-41 -4 -111 -10 -155 -14 -44 -4 -91 -9 -105 -11 -14 -2
-50 -7 -80 -10 -81 -9 -304 -40 -345 -49 -11 -2 -40 -7 -65 -10 -71 -10 -111
-18 -215 -48 -403 -113 -836 -422 -1221 -869 -121 -142 -107 -123 -200 -249
-164 -220 -286 -422 -423 -700 -141 -286 -228 -410 -430 -608 -264 -260 -557
-452 -1124 -738 -367 -185 -422 -218 -457 -277 -15 -24 -17 -35 -8 -51 18 -33
68 -73 138 -110 56 -29 77 -37 135 -52 111 -28 295 -24 453 10 535 116 1235
587 2056 1386 88 85 167 162 175 170 306 284 758 540 1453 825 62 26 127 53
143 60 17 7 127 52 245 100 118 47 239 97 268 111 29 13 55 24 57 24 13 0 322
154 390 194 173 103 263 186 344 319 114 187 113 358 -4 452 -84 67 -211 115
-350 131 -22 3 -51 8 -65 11 -37 8 -522 11 -610 3z"/>
<path d="M17219 7705 c-3 -2 -22 -6 -44 -9 -166 -22 -274 -124 -331 -311 -15
-47 -18 -91 -17 -205 1 -80 3 -152 6 -160 2 -8 7 -33 11 -55 60 -312 244 -666
525 -1010 35 -44 67 -82 70 -85 3 -3 35 -39 70 -80 63 -73 427 -441 526 -530
87 -79 287 -253 385 -335 52 -44 97 -82 100 -85 27 -29 539 -432 705 -555 44
-33 82 -62 85 -66 6 -6 439 -323 685 -501 981 -706 1458 -1014 1686 -1087 105
-34 158 -32 180 7 40 68 -22 219 -194 477 -59 88 -177 255 -187 265 -3 3 -32
41 -65 85 -32 44 -63 85 -67 90 -326 412 -494 617 -787 960 -182 213 -338 370
-591 595 -153 136 -183 164 -290 270 -124 123 -305 339 -692 823 -405 507
-478 598 -512 638 -17 20 -40 47 -50 60 -132 165 -363 404 -506 523 -80 66
-235 156 -355 207 -75 31 -213 65 -274 68 -30 1 -58 4 -61 6 -4 3 -9 3 -11 0z"/>
<path d="M9827 6444 c-1 -1 -47 -4 -102 -8 -55 -3 -110 -8 -121 -10 -12 -2
-39 -7 -60 -10 -174 -28 -374 -135 -496 -264 -112 -121 -204 -282 -267 -472
-31 -91 -66 -221 -74 -275 -3 -16 -10 -57 -16 -90 -18 -102 -25 -161 -46 -365
-20 -195 -24 -770 -10 -1270 11 -392 12 -1201 2 -1350 -9 -125 -11 -145 -21
-235 -4 -33 -9 -78 -12 -100 -9 -82 -38 -226 -68 -340 -8 -33 -33 -111 -55
-173 -23 -66 -38 -125 -35 -140 11 -67 44 -94 113 -93 173 1 427 211 638 526
33 50 66 101 73 115 7 14 16 27 19 30 19 16 143 262 209 416 94 218 242 656
266 789 3 14 12 49 20 78 8 29 17 63 20 77 2 14 9 45 15 70 5 25 12 56 15 70
2 14 11 57 19 95 9 39 18 84 20 100 3 17 12 68 21 115 8 47 17 103 21 125 8
54 25 164 30 195 2 14 6 45 9 70 2 25 9 86 15 135 6 50 14 113 17 140 3 28 7
64 9 80 10 82 74 223 200 440 214 369 271 470 332 595 30 63 74 169 96 235 39
114 41 126 41 245 1 114 -1 130 -25 180 -86 183 -310 270 -707 274 -57 1 -104
1 -105 0z"/>
<path d="M13475 6350 c-22 -5 -54 -11 -71 -14 -90 -17 -266 -89 -360 -148 -98
-62 -224 -246 -272 -398 -29 -89 -33 -112 -39 -212 -13 -212 64 -456 220 -703
49 -77 173 -248 221 -303 13 -15 54 -63 91 -107 67 -78 396 -410 525 -530 70
-65 223 -203 279 -251 19 -16 39 -34 45 -39 6 -6 49 -44 96 -85 47 -41 87 -77
90 -80 3 -3 39 -34 80 -70 41 -36 77 -67 80 -70 3 -3 39 -34 80 -70 114 -99
151 -132 314 -280 341 -309 589 -568 750 -785 141 -188 206 -305 256 -453 33
-102 40 -136 45 -257 7 -142 15 -194 37 -254 26 -71 96 -142 163 -164 l48 -17
-7 218 c-3 119 -8 233 -10 252 -2 19 -7 69 -10 111 -4 42 -8 85 -10 95 -2 11
-7 46 -11 79 -23 204 -104 519 -180 705 -52 126 -195 387 -224 410 -4 3 -18
21 -31 40 -45 66 -145 175 -279 305 -351 340 -418 417 -492 570 -22 45 -50
126 -64 179 -22 89 -28 131 -40 291 -11 142 -16 202 -20 235 -3 19 -7 60 -10
90 -3 30 -7 64 -9 75 -2 11 -7 43 -10 70 -8 57 -23 158 -31 195 -13 69 -19 94
-46 210 -91 394 -240 706 -430 901 -134 137 -254 207 -424 248 -76 18 -271 24
-340 11z"/>
<path d="M0 981 c0 -5 6 -11 13 -13 6 -2 5756 -3 12776 -3 9898 1 12766 4
12769 13 3 9 -2862 12 -12777 12 -7493 0 -12781 -4 -12781 -9z"/>
</g>
</svg>
